<mxfile host="app.diagrams.net" modified="2021-09-15T08:43:51.014Z" agent="5.0 (Windows NT 10.0; Win64; x64) AppleWebKit/537.36 (KHTML, like Gecko) Chrome/93.0.4577.63 Safari/537.36" etag="Mu1dCYXd9DiAfWbbHmIx" version="15.1.4" type="github">
  <diagram id="C1-0KiolmR-UWN_k-w1Z" name="Page-1">
    <mxGraphModel dx="984" dy="636" grid="1" gridSize="10" guides="1" tooltips="1" connect="1" arrows="1" fold="1" page="1" pageScale="1" pageWidth="827" pageHeight="1169" math="0" shadow="0">
      <root>
        <mxCell id="0" />
        <mxCell id="1" parent="0" />
        <mxCell id="t0pfX8kNv0US77YjriFs-3" value="" style="edgeStyle=orthogonalEdgeStyle;rounded=0;orthogonalLoop=1;jettySize=auto;html=1;" edge="1" parent="1" source="t0pfX8kNv0US77YjriFs-1" target="t0pfX8kNv0US77YjriFs-2">
          <mxGeometry relative="1" as="geometry" />
        </mxCell>
        <mxCell id="t0pfX8kNv0US77YjriFs-1" value="RealCall" style="rounded=1;whiteSpace=wrap;html=1;" vertex="1" parent="1">
          <mxGeometry x="210" y="60" width="120" height="60" as="geometry" />
        </mxCell>
        <mxCell id="t0pfX8kNv0US77YjriFs-5" value="" style="edgeStyle=orthogonalEdgeStyle;rounded=0;orthogonalLoop=1;jettySize=auto;html=1;" edge="1" parent="1" source="t0pfX8kNv0US77YjriFs-2" target="t0pfX8kNv0US77YjriFs-4">
          <mxGeometry relative="1" as="geometry" />
        </mxCell>
        <mxCell id="t0pfX8kNv0US77YjriFs-2" value="自定义Interceptor" style="whiteSpace=wrap;html=1;rounded=1;" vertex="1" parent="1">
          <mxGeometry x="220" y="200" width="120" height="60" as="geometry" />
        </mxCell>
        <mxCell id="t0pfX8kNv0US77YjriFs-7" value="" style="edgeStyle=orthogonalEdgeStyle;rounded=0;orthogonalLoop=1;jettySize=auto;html=1;" edge="1" parent="1" source="t0pfX8kNv0US77YjriFs-4" target="t0pfX8kNv0US77YjriFs-6">
          <mxGeometry relative="1" as="geometry" />
        </mxCell>
        <mxCell id="t0pfX8kNv0US77YjriFs-4" value="cacheInterceptor" style="whiteSpace=wrap;html=1;rounded=1;" vertex="1" parent="1">
          <mxGeometry x="220" y="330" width="120" height="60" as="geometry" />
        </mxCell>
        <mxCell id="t0pfX8kNv0US77YjriFs-6" value="serverInterceptor" style="whiteSpace=wrap;html=1;rounded=1;" vertex="1" parent="1">
          <mxGeometry x="220" y="480" width="120" height="60" as="geometry" />
        </mxCell>
        <mxCell id="t0pfX8kNv0US77YjriFs-8" value="Cache" style="rounded=1;whiteSpace=wrap;html=1;" vertex="1" parent="1">
          <mxGeometry x="80" y="180" width="120" height="60" as="geometry" />
        </mxCell>
        <mxCell id="t0pfX8kNv0US77YjriFs-11" value="" style="edgeStyle=orthogonalEdgeStyle;rounded=0;orthogonalLoop=1;jettySize=auto;html=1;" edge="1" parent="1" source="t0pfX8kNv0US77YjriFs-9" target="t0pfX8kNv0US77YjriFs-10">
          <mxGeometry relative="1" as="geometry" />
        </mxCell>
        <mxCell id="t0pfX8kNv0US77YjriFs-9" value="cacheInterceptor" style="whiteSpace=wrap;html=1;rounded=1;" vertex="1" parent="1">
          <mxGeometry x="600" y="90" width="120" height="60" as="geometry" />
        </mxCell>
        <mxCell id="t0pfX8kNv0US77YjriFs-15" value="" style="edgeStyle=orthogonalEdgeStyle;rounded=0;orthogonalLoop=1;jettySize=auto;html=1;" edge="1" parent="1" source="t0pfX8kNv0US77YjriFs-10" target="t0pfX8kNv0US77YjriFs-14">
          <mxGeometry relative="1" as="geometry" />
        </mxCell>
        <mxCell id="t0pfX8kNv0US77YjriFs-20" value="" style="edgeStyle=orthogonalEdgeStyle;rounded=0;orthogonalLoop=1;jettySize=auto;html=1;" edge="1" parent="1" source="t0pfX8kNv0US77YjriFs-10" target="t0pfX8kNv0US77YjriFs-19">
          <mxGeometry relative="1" as="geometry" />
        </mxCell>
        <mxCell id="t0pfX8kNv0US77YjriFs-10" value="cache和request都没空" style="rhombus;whiteSpace=wrap;html=1;rounded=1;" vertex="1" parent="1">
          <mxGeometry x="640" y="250" width="80" height="80" as="geometry" />
        </mxCell>
        <mxCell id="t0pfX8kNv0US77YjriFs-14" value="结束返回504" style="whiteSpace=wrap;html=1;rounded=1;" vertex="1" parent="1">
          <mxGeometry x="630" y="420" width="120" height="60" as="geometry" />
        </mxCell>
        <mxCell id="t0pfX8kNv0US77YjriFs-23" value="" style="edgeStyle=orthogonalEdgeStyle;rounded=0;orthogonalLoop=1;jettySize=auto;html=1;" edge="1" parent="1" source="t0pfX8kNv0US77YjriFs-19" target="t0pfX8kNv0US77YjriFs-22">
          <mxGeometry relative="1" as="geometry" />
        </mxCell>
        <mxCell id="t0pfX8kNv0US77YjriFs-25" value="" style="edgeStyle=orthogonalEdgeStyle;rounded=0;orthogonalLoop=1;jettySize=auto;html=1;" edge="1" parent="1" source="t0pfX8kNv0US77YjriFs-19" target="t0pfX8kNv0US77YjriFs-24">
          <mxGeometry relative="1" as="geometry" />
        </mxCell>
        <mxCell id="t0pfX8kNv0US77YjriFs-19" value="request为空" style="rhombus;whiteSpace=wrap;html=1;rounded=1;" vertex="1" parent="1">
          <mxGeometry x="490" y="250" width="80" height="80" as="geometry" />
        </mxCell>
        <mxCell id="t0pfX8kNv0US77YjriFs-22" value="使用cache构造response" style="whiteSpace=wrap;html=1;rounded=1;" vertex="1" parent="1">
          <mxGeometry x="330" y="260" width="120" height="60" as="geometry" />
        </mxCell>
        <mxCell id="t0pfX8kNv0US77YjriFs-27" value="" style="edgeStyle=orthogonalEdgeStyle;rounded=0;orthogonalLoop=1;jettySize=auto;html=1;" edge="1" parent="1" source="t0pfX8kNv0US77YjriFs-24" target="t0pfX8kNv0US77YjriFs-26">
          <mxGeometry relative="1" as="geometry" />
        </mxCell>
        <mxCell id="t0pfX8kNv0US77YjriFs-24" value="发起请求" style="whiteSpace=wrap;html=1;rounded=1;" vertex="1" parent="1">
          <mxGeometry x="470" y="420" width="120" height="60" as="geometry" />
        </mxCell>
        <mxCell id="t0pfX8kNv0US77YjriFs-28" style="edgeStyle=orthogonalEdgeStyle;rounded=0;orthogonalLoop=1;jettySize=auto;html=1;entryX=0.5;entryY=1;entryDx=0;entryDy=0;" edge="1" parent="1" source="t0pfX8kNv0US77YjriFs-26" target="t0pfX8kNv0US77YjriFs-22">
          <mxGeometry relative="1" as="geometry" />
        </mxCell>
        <mxCell id="t0pfX8kNv0US77YjriFs-30" value="" style="edgeStyle=orthogonalEdgeStyle;rounded=0;orthogonalLoop=1;jettySize=auto;html=1;" edge="1" parent="1" source="t0pfX8kNv0US77YjriFs-26" target="t0pfX8kNv0US77YjriFs-29">
          <mxGeometry relative="1" as="geometry" />
        </mxCell>
        <mxCell id="t0pfX8kNv0US77YjriFs-26" value="cache缓冲&amp;amp;&amp;amp;304？" style="rhombus;whiteSpace=wrap;html=1;rounded=1;" vertex="1" parent="1">
          <mxGeometry x="490" y="550" width="80" height="80" as="geometry" />
        </mxCell>
        <mxCell id="t0pfX8kNv0US77YjriFs-32" value="" style="edgeStyle=orthogonalEdgeStyle;rounded=0;orthogonalLoop=1;jettySize=auto;html=1;" edge="1" parent="1" source="t0pfX8kNv0US77YjriFs-29" target="t0pfX8kNv0US77YjriFs-31">
          <mxGeometry relative="1" as="geometry" />
        </mxCell>
        <mxCell id="t0pfX8kNv0US77YjriFs-34" value="" style="edgeStyle=orthogonalEdgeStyle;rounded=0;orthogonalLoop=1;jettySize=auto;html=1;" edge="1" parent="1" source="t0pfX8kNv0US77YjriFs-29" target="t0pfX8kNv0US77YjriFs-33">
          <mxGeometry relative="1" as="geometry" />
        </mxCell>
        <mxCell id="t0pfX8kNv0US77YjriFs-29" value="response可缓存" style="rhombus;whiteSpace=wrap;html=1;rounded=1;" vertex="1" parent="1">
          <mxGeometry x="490" y="710" width="80" height="80" as="geometry" />
        </mxCell>
        <mxCell id="t0pfX8kNv0US77YjriFs-31" value="写入缓存" style="whiteSpace=wrap;html=1;rounded=1;" vertex="1" parent="1">
          <mxGeometry x="470" y="880" width="120" height="60" as="geometry" />
        </mxCell>
        <mxCell id="t0pfX8kNv0US77YjriFs-33" value="移除该缓存" style="whiteSpace=wrap;html=1;rounded=1;" vertex="1" parent="1">
          <mxGeometry x="630" y="720" width="120" height="60" as="geometry" />
        </mxCell>
      </root>
    </mxGraphModel>
  </diagram>
</mxfile>
